<?xml version="1.0" encoding="UTF-8"?>
<svg xmlns="http://www.w3.org/2000/svg" id="Layer_3" data-name="Layer 3" viewBox="0 0 64 64" width="512" height="512"><path d="M6,53.3V62H8V53.3a14.337,14.337,0,0,0-2.687-8.382A12.357,12.357,0,0,1,3,37.7V32.444a3.875,3.875,0,0,0,4,0V37H9V22.444a3.875,3.875,0,0,0,4,0V31h2V16.444a3.875,3.875,0,0,0,4,0V31h2V22.444a3.875,3.875,0,0,0,4,0V37h2V32.444a3.875,3.875,0,0,0,4,0V37.8a8.157,8.157,0,0,1-1.781,5.077A10.164,10.164,0,0,0,27,49.2V62h2V49.2a8.157,8.157,0,0,1,1.781-5.077A10.164,10.164,0,0,0,33,37.8V27.472a15.781,15.781,0,0,0-1.658-7.025A2.6,2.6,0,0,0,27,19.95V15.472a15.781,15.781,0,0,0-1.658-7.025,2.592,2.592,0,0,0-4.424-.377,15.78,15.78,0,0,0-1.576-5.623,2.619,2.619,0,0,0-4.684,0,15.781,15.781,0,0,0-1.576,5.622,2.593,2.593,0,0,0-4.424.378A15.781,15.781,0,0,0,7,15.472V17.95a2.6,2.6,0,0,0-4.342.5A15.781,15.781,0,0,0,1,25.472V37.7a14.337,14.337,0,0,0,2.687,8.382A12.357,12.357,0,0,1,6,53.3ZM28.447,21.342a.618.618,0,0,1,1.106,0A13.765,13.765,0,0,1,31,27.472V29a2,2,0,0,1-4,0V27.472A13.765,13.765,0,0,1,28.447,21.342Zm-6-12a.618.618,0,0,1,1.106,0A13.765,13.765,0,0,1,25,15.472V19a2,2,0,0,1-4,0V15.472A13.765,13.765,0,0,1,22.447,9.342ZM15,9.472a13.765,13.765,0,0,1,1.447-6.13.618.618,0,0,1,1.106,0A13.765,13.765,0,0,1,19,9.472V13a2,2,0,0,1-4,0V9.472Zm-6,6a13.765,13.765,0,0,1,1.447-6.13.618.618,0,0,1,1.106,0A13.765,13.765,0,0,1,13,15.472V19a2,2,0,0,1-4,0V15.472Zm-6,10a13.765,13.765,0,0,1,1.447-6.13.618.618,0,0,1,1.106,0A13.765,13.765,0,0,1,7,25.472V29a2,2,0,0,1-4,0V25.472Z"/><path d="M58.465,1a4.5,4.5,0,0,0-3.207,1.329L38.328,19.257a4.535,4.535,0,1,0,6.414,6.414L61.672,8.743A4.536,4.536,0,0,0,58.465,1ZM54,6.414,57.586,10,56,11.586,52.414,8ZM43.328,24.257a2.536,2.536,0,0,1-3.586-3.586L51,9.414,54.586,13ZM60.258,7.329,59,8.586,55.414,5l1.258-1.257a2.536,2.536,0,0,1,3.586,3.586Z"/><path d="M62.242,23.03A7.085,7.085,0,0,1,57.4,18.8l-.468-1.172a1,1,0,0,0-1.858,0L54.6,18.8a7.085,7.085,0,0,1-4.845,4.23,1,1,0,0,0,0,1.94A7.085,7.085,0,0,1,54.6,29.2l.468,1.172a1,1,0,0,0,1.858,0L57.4,29.2a7.085,7.085,0,0,1,4.845-4.23,1,1,0,0,0,0-1.94ZM56,27.481A9.1,9.1,0,0,0,52.617,24,9.1,9.1,0,0,0,56,20.519,9.1,9.1,0,0,0,59.383,24,9.1,9.1,0,0,0,56,27.481Z"/><path d="M41.052,12.316a1,1,0,0,0,1.9,0A6.6,6.6,0,0,1,46.275,8.48L47.447,7.9a1,1,0,0,0,0-1.79L46.275,5.52a6.6,6.6,0,0,1-3.327-3.836,1,1,0,0,0-1.9,0A6.6,6.6,0,0,1,37.725,5.52l-1.172.585a1,1,0,0,0,0,1.79l1.172.585A6.6,6.6,0,0,1,41.052,12.316ZM42,4.293A8.559,8.559,0,0,0,44.816,7,8.559,8.559,0,0,0,42,9.707,8.559,8.559,0,0,0,39.184,7,8.559,8.559,0,0,0,42,4.293Z"/><rect x="29.172" y="8" width="5.657" height="2" transform="translate(3.009 25.263) rotate(-45)"/><rect x="29.172" y="14" width="5.657" height="2" transform="translate(-1.234 27.021) rotate(-45)"/></svg>
