<?xml version="1.0" encoding="UTF-8"?>
<!-- Generator: Adobe Illustrator 25.2.3, SVG Export Plug-In . SVG Version: 6.00 Build 0)  -->
<svg xmlns="http://www.w3.org/2000/svg" xmlns:xlink="http://www.w3.org/1999/xlink" version="1.1" id="Capa_1" x="0px" y="0px" viewBox="0 0 512 512" style="enable-background:new 0 0 512 512;" xml:space="preserve" width="512" height="512">
<g>
	<g>
		<path d="M445.935,308.92v-44.662c0-13.735-12.121-25.609-36.025-35.292c-17.831-7.223-41.687-13.023-69.521-16.939    c4.208-9.408,6.448-19.711,6.448-30.349V0H165.161v181.677c0,10.638,2.24,20.941,6.449,30.349    c-27.834,3.916-51.689,9.717-69.521,16.939c-23.904,9.683-36.025,21.557-36.025,35.292v44.662    c-20.501,12.248-33.032,34.152-33.032,58.334v106.209l1.652,2.202C51.748,498.417,78.915,512,107.355,512h297.29    c28.44,0,55.607-13.583,72.671-36.336l1.652-2.202V367.254C478.968,343.073,466.436,321.167,445.935,308.92z M462.365,364.37    c-1.122,8.197-16.948,21.412-58.268,32.306c-12.043,3.175-25.281,5.915-39.43,8.194l-17.888-39.75    c46.654-7.165,83.875-20.203,95.418-38.816C454.126,335.356,461.531,349.148,462.365,364.37z M420.307,462.452l29.064-64.588    c4.904-2.502,9.29-5.149,13.08-7.941v72.53H420.307z M49.548,462.452v-72.53c3.789,2.792,8.175,5.439,13.08,7.941l29.065,64.588    H49.548z M109.804,462.452l-24.91-55.356c15.946,5.444,34.791,9.911,55.417,13.379l-18.889,41.977H109.804z M157.262,423.053    c20.682,2.82,42.729,4.709,65.139,5.656l14.208,33.742h-97.076L157.262,423.053z M322.065,259.427    c38.387,4.15,70.202,11.79,89.401,21.32c-7.325,3.62-16.989,7.257-29.174,10.58c-17.439,4.757-37.902,8.401-60.228,10.811v-42.711    H322.065z M305.548,303.668c-15.894,1.238-32.532,1.881-49.548,1.881s-33.655-0.643-49.548-1.881v-121.99    c0-13.661,11.113-24.774,24.774-24.774h49.548c13.661,0,24.774,11.113,24.774,24.774V303.668z M189.935,302.138    c-22.326-2.41-42.789-6.054-60.228-10.811c-12.184-3.323-21.849-6.96-29.174-10.58c19.2-9.53,51.015-17.171,89.401-21.32v42.711    H189.935z M82.581,289.375c31.354,21.545,102.712,32.69,173.419,32.69s142.066-11.144,173.419-32.69v24.431    c0,7.076-14.572,18.19-47.127,27.069c-33.626,9.171-78.478,14.221-126.293,14.221s-92.667-5.051-126.293-14.221    c-32.554-8.878-47.127-19.993-47.127-27.069V289.375z M254.529,462.452l-13.972-33.182c5.147,0.099,10.298,0.15,15.443,0.15    c5.145,0,10.296-0.051,15.443-0.15l-13.972,33.182H254.529z M256,412.903c-7.557,0-15.052-0.109-22.467-0.318l-17.762-42.184    c13.246,0.805,26.749,1.212,40.229,1.212c13.48,0,26.983-0.407,40.229-1.212l-17.762,42.184    C271.052,412.794,263.557,412.903,256,412.903z M314.741,368.996c5.054-0.461,10.051-0.98,14.969-1.561l17.953,39.895    c-16.146,2.084-33.248,3.609-50.969,4.53L314.741,368.996z M197.259,368.996l18.048,42.862    c-17.721-0.921-34.823-2.445-50.969-4.53l17.953-39.895C187.208,368.018,192.205,368.536,197.259,368.996z M289.599,428.708    c22.408-0.947,44.456-2.835,65.139-5.656l17.73,39.399h-97.076L289.599,428.708z M390.579,462.452l-18.889-41.977    c20.626-3.468,39.47-7.935,55.417-13.379l-24.91,55.356H390.579z M429.419,264.258c0,1.783-0.927,3.821-2.831,6.016    c-20.718-12.772-57.946-22.572-104.523-27.453v-5.768c3.31-2.958,6.318-6.175,9.011-9.605    C402.607,236.42,429.419,254.654,429.419,264.258z M181.677,16.516h148.645v165.161c0,10.667-2.914,20.895-8.258,29.764v-29.764    c0-22.767-18.523-41.29-41.29-41.29h-49.548c-22.767,0-41.29,18.523-41.29,41.29v29.764c-5.344-8.869-8.258-19.097-8.258-29.764    V16.516z M180.925,227.449c2.691,3.43,5.7,6.647,9.011,9.605v5.767c-46.579,4.881-83.805,14.681-104.523,27.453    c-1.905-2.195-2.831-4.233-2.831-6.016C82.581,254.654,109.393,236.42,180.925,227.449z M69.802,326.304    c11.544,18.613,48.765,31.651,95.418,38.816l-17.888,39.75c-14.149-2.28-27.387-5.019-39.43-8.194    c-41.321-10.893-57.147-24.107-58.268-32.306C50.469,349.148,57.874,335.356,69.802,326.304z M107.355,495.484    c-17.066,0-33.568-5.984-46.664-16.516h390.618c-13.095,10.532-29.598,16.516-46.664,16.516H107.355z"/>
		<rect x="363.355" y="66.065" width="16.516" height="16.516"/>
		<rect x="396.387" y="66.065" width="16.516" height="16.516"/>
		<rect x="379.871" y="49.548" width="16.516" height="16.516"/>
		<rect x="379.871" y="82.581" width="16.516" height="16.516"/>
		<rect x="462.452" y="115.613" width="16.516" height="16.516"/>
		<rect x="495.484" y="115.613" width="16.516" height="16.516"/>
		<rect x="478.968" y="99.097" width="16.516" height="16.516"/>
		<rect x="478.968" y="132.129" width="16.516" height="16.516"/>
		<rect x="379.871" y="165.161" width="16.516" height="16.516"/>
		<rect x="412.903" y="165.161" width="16.516" height="16.516"/>
		<rect x="396.387" y="148.645" width="16.516" height="16.516"/>
		<rect x="396.387" y="181.677" width="16.516" height="16.516"/>
		<rect x="132.129" y="66.065" width="16.516" height="16.516"/>
		<rect x="99.097" y="66.065" width="16.516" height="16.516"/>
		<rect x="115.613" y="49.548" width="16.516" height="16.516"/>
		<rect x="115.613" y="82.581" width="16.516" height="16.516"/>
		<rect x="33.032" y="115.613" width="16.516" height="16.516"/>
		<rect y="115.613" width="16.516" height="16.516"/>
		<rect x="16.516" y="99.097" width="16.516" height="16.516"/>
		<rect x="16.516" y="132.129" width="16.516" height="16.516"/>
		<rect x="115.613" y="165.161" width="16.516" height="16.516"/>
		<rect x="82.581" y="165.161" width="16.516" height="16.516"/>
		<rect x="99.097" y="148.645" width="16.516" height="16.516"/>
		<rect x="99.097" y="181.677" width="16.516" height="16.516"/>
	</g>
</g>















</svg>
