<svg id="Capa_1" enable-background="new 0 0 512 512" height="512" viewBox="0 0 512 512" width="512" xmlns="http://www.w3.org/2000/svg"><g><path d="m173.144 447.84c-4.142 0-7.5 3.357-7.5 7.5v49.16c0 4.143 3.358 7.5 7.5 7.5s7.5-3.357 7.5-7.5v-49.16c0-4.143-3.358-7.5-7.5-7.5z"/><path d="m300.369 342.679c-1.279-3.94-5.509-6.093-9.449-4.818-11.476 3.725-23.405 5.615-35.454 5.621-11.686 0-23.274-1.787-34.445-5.312-3.952-1.251-8.164.945-9.409 4.896-1.247 3.95.945 8.163 4.896 9.409 12.632 3.986 25.74 6.007 38.962 6.007 13.625-.006 27.11-2.144 40.082-6.354 3.938-1.278 6.095-5.509 4.817-9.449z"/><path d="m255.527 329.737c8.593 0 17.071-1.282 25.2-3.812 3.955-1.23 6.163-5.435 4.933-9.39-1.23-3.954-5.431-6.169-9.39-4.933-6.684 2.079-13.662 3.134-20.743 3.134-6.762 0-13.455-.968-19.893-2.876-3.969-1.176-8.145 1.088-9.322 5.059-1.177 3.972 1.088 8.146 5.06 9.322 7.822 2.321 15.949 3.496 24.155 3.496z"/><path d="m484.184 230.082c-.004-.861.009-18.229-.006-18.675-.276-67.339-31.672-135.637-62.494-135.637-30.789 0-62.151 68.154-62.492 135.424-.022.908-.001 17.344-.008 18.888-5.083 4.876-9.541 10.291-13.311 16.118-1.954-20.354-11.684-41.406-27.369-56.048-.012-.81.025-18.707-.018-19.037-.092-17.562-2.218-35.353-6.353-52.905-.948-4.031-4.987-6.533-9.02-5.58-4.031.949-6.53 4.987-5.58 9.02 1.149 4.879 2.114 9.778 2.933 14.683-9.825-9.096-24.206-16.163-44.467-16.163-20.282 0-34.671 7.081-44.497 16.19 4.518-27.254 13.562-50.724 23.049-66.035 3.684 3.212 6.568 7.313 8.32 11.996l6.104 16.309c1.097 2.93 3.896 4.871 7.024 4.871s5.928-1.941 7.024-4.871l6.104-16.309c1.754-4.688 4.642-8.791 8.331-12.005 3.187 5.133 6.228 11.024 9.073 17.594 1.226 2.83 3.986 4.521 6.887 4.521.994 0 2.006-.199 2.977-.619 3.801-1.646 5.548-6.062 3.902-9.863-2.972-6.863-6.172-13.091-9.547-18.635l12.129-4.539c2.93-1.097 4.871-3.896 4.871-7.024s-1.941-5.928-4.871-7.024l-16.309-6.104c-8.066-3.019-14.424-9.376-17.442-17.442l-6.104-16.309c-1.096-2.931-3.896-4.872-7.024-4.872s-5.928 1.941-7.024 4.871l-6.104 16.309c-3.019 8.066-9.376 14.424-17.442 17.442l-16.309 6.104c-2.93 1.097-4.871 3.896-4.871 7.024s1.941 5.928 4.871 7.024l12.14 4.543c-14.314 23.694-27.49 63.842-27.744 107.7-.034 1.235-.003 17.245-.013 19.057-17.694 16.973-27.82 40.654-27.82 65.204l-.006 30.19c-3.666-5.553-7.953-10.724-12.818-15.392-.01-.99.019-18.503-.011-19.06-.108-18.177-2.505-37.21-6.962-55.306l4.103-10.963c2.229-5.956 6.922-10.649 12.877-12.878l12.899-4.827c2.93-1.097 4.872-3.896 4.872-7.024s-1.941-5.928-4.871-7.024l-12.899-4.828c-5.955-2.229-10.649-6.922-12.877-12.877l-4.828-12.899c-1.097-2.93-3.896-4.871-7.024-4.871s-5.928 1.941-7.024 4.871l-4.827 12.899c-.716 1.912-1.689 3.692-2.873 5.305-10.413-16.082-21.975-24.827-33.054-24.827-30.819 0-62.212 68.287-62.493 135.621-.017.726-.001 17.333-.007 18.69-17.94 17.199-27.819 40.346-27.819 65.197l-.042 169.223c-.001 4.143 3.356 7.501 7.498 7.502h.002c4.141 0 7.499-3.356 7.5-7.498l.042-169.226c0-15.266 4.485-29.754 12.819-42.063v5.91c0 34.463 28.038 62.5 62.5 62.5s62.5-28.037 62.5-62.5v-5.814c8.178 12.201 12.724 26.651 12.809 41.544l-.016 85.486c-.001 4.142 3.356 7.5 7.499 7.501h.001c4.142 0 7.499-3.357 7.5-7.499.008-41.491.023-123.839.03-165.061 0-15.027 4.567-29.653 12.82-41.974v5.814c0 16.692 6.501 32.387 18.307 44.193 11.805 11.805 27.5 18.307 44.193 18.307 34.463 0 62.5-28.037 62.5-62.5v-5.91c8.335 12.321 12.815 26.828 12.815 42.065l-.018 108.547-6.058 16.186c-3.296 8.809-10.238 15.751-19.046 19.047l-17.507 6.552c-2.93 1.097-4.871 3.896-4.871 7.024s1.941 5.928 4.871 7.024l17.507 6.552c8.808 3.296 15.75 10.238 19.046 19.047l6.042 16.143-.007 43.101c-.001 4.142 3.356 7.5 7.499 7.501h.001c4.142 0 7.499-3.357 7.5-7.499l.007-42.919 6.111-16.327c3.296-8.809 10.238-15.751 19.047-19.047l17.506-6.552c2.93-1.097 4.871-3.896 4.871-7.024s-1.941-5.928-4.871-7.024l-17.506-6.552c-8.809-3.296-15.751-10.238-19.047-19.047l-6.094-16.284c.051-1.618.06-66.824.06-68.448 0-15.409 4.557-29.682 12.822-41.992v5.836c0 14.249 4.925 28.19 13.867 39.255 2.604 3.221 7.325 3.724 10.547 1.118 3.222-2.604 3.723-7.326 1.119-10.547-6.891-8.526-10.533-18.84-10.533-29.826v-22.897c.905-4.952 17.415-23.543 47.497-23.543 29.875 0 46.539 18.634 47.502 23.588.003-.118 0 22.52.001 22.853 0 26.191-21.309 47.5-47.5 47.5-3.87 0-7.727-.468-11.46-1.391-4.022-.999-8.087 1.459-9.081 5.48s1.46 8.086 5.481 9.08c4.91 1.215 9.977 1.83 15.06 1.83 34.463 0 62.5-28.037 62.5-62.5v-5.813c8.256 12.313 12.816 26.912 12.816 41.967l-.041 209.224c-.001 4.143 3.356 7.501 7.498 7.502h.002c4.142 0 7.499-3.357 7.5-7.499l.041-209.225c0-24.597-10.107-48.201-27.816-65.194zm-346.045-84.738c3.389 6.191 8.483 11.285 14.675 14.675-6.192 3.389-11.286 8.482-14.675 14.675-3.389-6.192-8.482-11.286-14.675-14.675 6.192-3.39 11.286-8.484 14.675-14.675zm-47.778-14.577c4.369 0 12.099 4.922 20.668 18.291l-10.518 3.937c-2.93 1.097-4.871 3.896-4.871 7.024s1.942 5.928 4.872 7.024l12.899 4.827c5.956 2.229 10.649 6.922 12.877 12.878l4.308 11.511c.037.224.08.448.138.671 1.642 6.36 3.005 12.856 4.091 19.395-5.714-5.237-12.975-9.813-22.078-12.778-3.935-1.28-8.171.871-9.453 4.81-1.283 3.938.871 8.171 4.81 9.454 22.027 7.172 29.485 26.804 29.749 33.34-.001.549.012.061.01 2.27-10.895-8.639-27.251-15.742-47.5-15.742s-36.605 7.103-47.5 15.742c.01-.345-.02.216.015-2.209.248-6.403 8.58-28.811 34.205-34.617 4.04-.915 6.573-4.932 5.657-8.972s-4.933-6.578-8.972-5.657c-11.668 2.644-20.869 8.036-27.883 14.484 2.954-17.87 7.988-35.263 14.776-50.427 10.899-24.355 22.77-35.256 29.7-35.256zm0 215.856c-26.191 0-47.5-21.309-47.5-47.5v-22.891c.887-4.939 17.4-23.553 47.5-23.553 29.861 0 46.524 18.616 47.5 23.581v22.863c0 26.191-21.309 47.5-47.5 47.5zm128.264-196.092c6.271-7.008 17.844-15.361 37.375-15.361s31.104 8.354 37.374 15.361c7.46 8.337 9.992 17.346 10.114 20.713-.003.543.02-.014.016 2.18-10.895-8.64-27.253-15.745-47.504-15.745-20.247 0-36.602 7.102-47.496 15.739.007-.185-.015.107.011-2.253.158-3.425 2.707-12.359 10.11-20.634zm37.375-121.824c4.513 10.304 12.739 18.53 23.043 23.043-10.304 4.513-18.53 12.738-23.043 23.043-4.512-10.305-12.738-18.53-23.043-23.043 10.305-4.513 18.531-12.738 23.043-23.043zm.004 237.913c-12.687 0-24.614-4.941-33.587-13.913-8.972-8.973-13.913-20.901-13.913-33.587v-22.903c.916-4.96 17.425-23.538 47.496-23.538 29.875 0 46.539 18.634 47.502 23.588 0 .009.002.018.002.027v22.825c0 26.193-21.309 47.501-47.5 47.501zm108.969 146.012c-11.896 4.826-21.327 14.258-26.153 26.153-4.826-11.895-14.258-21.327-26.152-26.153 11.896-4.826 21.326-14.258 26.152-26.153 4.826 11.895 14.257 21.327 26.153 26.153zm56.711-321.862c6.929 0 18.799 10.901 29.699 35.254 6.772 15.13 11.799 32.476 14.757 50.302-9.825-9.092-24.203-16.155-44.459-16.155-20.252 0-34.628 7.061-44.453 16.15 2.957-17.824 7.982-35.169 14.753-50.296 10.899-24.355 22.772-35.255 29.703-35.255zm-.003 106.91c-20.247 0-36.603 7.102-47.497 15.74.01-.184-.022.15.017-2.351.201-3.496 2.772-12.341 10.106-20.537 6.27-7.008 17.844-15.361 37.374-15.361s31.104 8.354 37.374 15.361c7.47 8.348 9.999 17.37 10.115 20.726-.003.541.018-.022.014 2.166-10.895-8.64-27.253-15.744-47.503-15.744z"/><path d="m456.601 377.86c-11.477 3.725-23.406 5.615-35.454 5.621-11.686 0-23.275-1.787-34.445-5.312-3.949-1.248-8.162.945-9.409 4.896-1.246 3.95.945 8.163 4.896 9.409 12.633 3.986 25.74 6.007 38.963 6.007 13.623-.006 27.108-2.144 40.081-6.354 3.939-1.278 6.097-5.509 4.818-9.449s-5.509-6.098-9.45-4.818z"/><path d="m421.207 369.737c8.594 0 17.072-1.282 25.199-3.812 3.955-1.23 6.163-5.435 4.933-9.39-1.23-3.954-5.431-6.169-9.39-4.933-6.683 2.079-13.661 3.134-20.742 3.134-6.762 0-13.454-.968-19.893-2.876-3.974-1.176-8.146 1.088-9.322 5.059-1.178 3.972 1.088 8.146 5.059 9.322 7.823 2.321 15.95 3.496 24.156 3.496z"/><path d="m125.282 417.86c-11.477 3.725-23.406 5.615-35.455 5.621-11.686 0-23.274-1.787-34.444-5.312-3.953-1.251-8.163.945-9.409 4.896-1.247 3.95.945 8.163 4.896 9.409 12.632 3.986 25.739 6.007 38.961 6.007 13.625-.006 27.11-2.144 40.082-6.354 3.94-1.278 6.097-5.509 4.819-9.449-1.281-3.94-5.511-6.098-9.45-4.818z"/><path d="m89.888 409.737c8.593 0 17.071-1.282 25.199-3.812 3.955-1.23 6.164-5.435 4.933-9.39-1.23-3.955-5.433-6.165-9.39-4.933-6.683 2.079-13.662 3.134-20.742 3.134-6.761 0-13.454-.968-19.893-2.876-3.97-1.177-8.145 1.089-9.322 5.059-1.177 3.972 1.088 8.146 5.06 9.322 7.822 2.321 15.95 3.496 24.155 3.496z"/></g></svg>