<svg id="Capa_1" enable-background="new 0 0 512 512" height="512" viewBox="0 0 512 512" width="512" xmlns="http://www.w3.org/2000/svg"><g><g><g><path d="m190.136 402.061c-4.142 0-7.5-3.357-7.5-7.5v-12.97c0-4.143 3.358-7.5 7.5-7.5s7.5 3.357 7.5 7.5v12.97c0 4.142-3.358 7.5-7.5 7.5z"/></g><g><path d="m325.128 402.061c-4.142 0-7.5-3.357-7.5-7.5v-12.97c0-4.143 3.358-7.5 7.5-7.5s7.5 3.357 7.5 7.5v12.97c0 4.142-3.358 7.5-7.5 7.5z"/></g><g><path d="m257.632 409.781c-8.987 0-17.534-3.893-23.449-10.68-2.721-3.123-2.396-7.86.727-10.582 3.123-2.721 7.86-2.396 10.582.727 3.065 3.518 7.49 5.535 12.141 5.535s9.075-2.018 12.141-5.535c2.721-3.122 7.459-3.448 10.582-.727 3.123 2.722 3.448 7.459.727 10.582-5.917 6.788-14.464 10.68-23.451 10.68z"/></g></g><path d="m461.073 297.882c-.001 0-.001 0 0 0-9.764-5.821-18.002-14.06-23.824-23.823-3.167-5.311-8.945-8.609-15.08-8.609-3.807 0-7.476 1.272-10.469 3.505v-35.498c0-38.816-20.667-75.495-53.971-95.907-3.783-17.171-8.89-34.077-15.343-50.624-1.504-3.859-5.854-5.77-9.712-4.262-3.859 1.505-5.768 5.854-4.262 9.713 14.787 37.913 22.285 77.771 22.285 118.465v49.501c-28.294-13.86-60.205-21.201-93.084-21.295-32.843.094-64.747 7.434-93.042 21.294v-49.5c0-29.342 3.958-58.505 11.763-86.769 5.04-.841 9.578-3.881 12.251-8.364 5.822-9.764 14.06-18.001 23.824-23.823 5.309-3.166 8.607-8.944 8.607-15.079 0-6.136-3.298-11.914-8.607-15.08 0 0 0 0-.001 0-3.005-1.792-5.844-3.837-8.534-6.061 2.875-5.311 5.909-10.569 9.057-15.686 9.481-15.409 26.61-24.98 44.701-24.98s35.22 9.571 44.702 24.979c5.175 8.409 10.025 17.161 14.416 26.013 1.309 2.64 3.965 4.169 6.725 4.169 1.119 0 2.256-.252 3.327-.783 3.711-1.841 5.227-6.341 3.386-10.052-4.592-9.258-9.666-18.412-15.078-27.208-12.193-19.811-34.216-32.118-57.478-32.118-23.261 0-45.285 12.307-57.477 32.118-2.469 4.011-4.861 8.109-7.176 12.247-1.581-2.07-3.06-4.221-4.396-6.463-3.167-5.31-8.944-8.608-15.08-8.608s-11.914 3.299-15.08 8.608c-5.821 9.764-14.059 18.001-23.823 23.823-5.31 3.166-8.608 8.944-8.608 15.08 0 6.135 3.299 11.913 8.609 15.079 9.764 5.822 18.001 14.06 23.823 23.823.95 1.594 2.139 3.001 3.499 4.198-1.416 5.117-2.703 10.263-3.877 15.433-35.636 19.974-57.746 57.492-57.746 98.119v37.514c0 4.143 3.358 7.5 7.5 7.5s7.5-3.357 7.5-7.5v-37.514c0-30.662 14.554-59.285 38.734-77.606-2.967 18.154-4.465 36.538-4.465 54.991v89.67c0 9.837 3.545 19.359 9.981 26.813 5.556 6.433 12.849 10.923 21.091 12.983 25.184 6.296 51.087 9.443 76.991 9.443s51.807-3.147 76.992-9.443c8.241-2.061 15.534-6.551 21.09-12.983 6.437-7.454 9.981-16.977 9.981-26.813v-89.67c0-17.502-1.348-34.852-3.985-51.978 21.872 18.409 34.99 45.828 34.99 74.593v53.945c-4.019 4.027-8.534 7.559-13.434 10.48-5.31 3.166-8.608 8.944-8.608 15.079s3.299 11.913 8.608 15.079c4.9 2.923 9.415 6.454 13.434 10.481v61.078c0 53.707-43.694 97.401-97.401 97.401h-86.597c-51.096 0-93.352-39.411-97.127-90.113 3.951-3.915 8.368-7.36 13.159-10.217 5.31-3.166 8.608-8.944 8.608-15.08 0-6.135-3.299-11.913-8.608-15.079-4.9-2.922-9.415-6.454-13.434-10.48v-55.06c0-4.143-3.358-7.5-7.5-7.5s-7.5 3.357-7.5 7.5v36.613c-2.993-2.233-6.662-3.505-10.469-3.505-6.135 0-11.913 3.299-15.08 8.608-5.821 9.764-14.059 18.001-23.824 23.823-5.309 3.166-8.607 8.944-8.607 15.08 0 6.135 3.298 11.913 8.608 15.079 9.764 5.822 18.001 14.06 23.823 23.823 3.167 5.31 8.944 8.608 15.08 8.608 4.966 0 9.697-2.163 13-5.803 4.72 21.845 15.916 41.869 32.476 57.637 21.039 20.034 48.525 31.066 77.395 31.066h86.597c61.979 0 112.401-50.423 112.401-112.401v-42.631c2.994 2.233 6.662 3.505 10.469 3.505 6.135 0 11.913-3.299 15.079-8.609 5.822-9.763 14.06-18 23.825-23.823 5.309-3.166 8.607-8.944 8.607-15.079s-3.298-11.914-8.607-15.08zm-318.79-218.88c-.809-.482-1.291-1.303-1.291-2.196s.482-1.715 1.291-2.197c11.896-7.093 21.933-17.129 29.025-29.024.481-.808 1.303-1.29 2.196-1.29s1.714.482 2.196 1.29c7.093 11.896 17.13 21.932 29.025 29.024.808.482 1.29 1.304 1.29 2.197s-.482 1.714-1.29 2.196c-11.896 7.093-21.933 17.129-29.025 29.024-.481.808-1.303 1.29-2.196 1.29s-1.714-.482-2.196-1.29c-7.093-11.895-17.13-21.931-29.025-29.024zm202.078 238.519c-3.524 4.081-8.15 6.929-13.376 8.235-47.988 11.999-98.718 11.997-146.706 0-5.227-1.307-9.852-4.154-13.376-8.235-4.084-4.729-6.334-10.771-6.334-17.009v-23.289c27.838-15.064 59.919-23.079 93.042-23.174 33.162.096 65.247 8.111 93.084 23.175v23.289c0 6.237-2.25 12.278-6.334 17.008zm-254.53 96.581c-.893 0-1.714-.482-2.196-1.29-7.093-11.896-17.13-21.932-29.024-29.024-.809-.482-1.291-1.304-1.291-2.197s.482-1.714 1.29-2.196c11.896-7.093 21.933-17.129 29.025-29.024.481-.808 1.303-1.29 2.196-1.29.894 0 1.715.482 2.196 1.29 7.092 11.896 17.129 21.932 29.025 29.024.808.482 1.291 1.304 1.291 2.197s-.482 1.714-1.291 2.196c-11.895 7.092-21.932 17.129-29.025 29.024-.481.807-1.302 1.29-2.196 1.29zm363.559-98.945c-11.896 7.094-21.932 17.13-29.025 29.024-.482.809-1.303 1.291-2.196 1.291s-1.714-.482-2.196-1.291c-7.092-11.895-17.129-21.931-29.024-29.024-.809-.482-1.291-1.303-1.291-2.196s.482-1.714 1.291-2.196c11.895-7.092 21.932-17.129 29.025-29.024.482-.809 1.303-1.291 2.196-1.291s1.714.482 2.196 1.291c7.093 11.896 17.13 21.933 29.025 29.024.808.482 1.29 1.304 1.29 2.196-.001.893-.483 1.714-1.291 2.196z"/></g></svg>