<svg id="Layer_1" height="512" viewBox="0 0 64 64" width="512" xmlns="http://www.w3.org/2000/svg" data-name="Layer 1"><path d="m62.76 45.44v-.14a.43.43 0 0 0 0 0v-.1a.09.09 0 0 1 0 0c-.3-3.93-14-6.24-27.7-6.51l-1.06-2.75-3.26-6.62-5.67-8a29.64 29.64 0 0 1 -3.49-6.49l-1-2.53a29.73 29.73 0 0 1 -1.75-6.82l-.7-5.05a.49.49 0 1 0 -1 .13l.68 5.06a31.24 31.24 0 0 0 1.82 7.05l1 2.53a31.13 31.13 0 0 0 3.6 6.7l5.64 7.92 3.2 6.53 1.13 2.73c0 .05.06.1.08.15a.54.54 0 0 0 .07.13c1.13 2.22 4.13 3.94 7.2 4.15v.06a2.34 2.34 0 0 0 2.33 2.33h2.34c-1.09 3-4.6 2.63-6.62 2.1a5.94 5.94 0 0 0 -3.29 0 11.6 11.6 0 0 1 -6.51-.13 11.67 11.67 0 0 1 -6.25-5.19c-3.61-5.91-7.25-7-9.09-7.12a12.89 12.89 0 0 1 -3.31-.56c-4-1.41-5.09-4.15-5.3-6.21a8.27 8.27 0 0 1 .44-3.38l1.32-4a12.16 12.16 0 0 0 -1.29-8.53l-4.16-10.48a.49.49 0 0 0 -.64-.28.49.49 0 0 0 -.27.64l4.19 10.56a11.41 11.41 0 0 1 1.22 7.83l-1.31 3.93a9.39 9.39 0 0 0 -.48 3.79c.23 2.34 1.45 5.46 6 7a13.72 13.72 0 0 0 3.58.63 8.53 8.53 0 0 1 5.08 2.56c-5.41.51-18.27 2.14-18.27 6.13v.06a2.36 2.36 0 0 0 .08.45c1.73 11.56 12.44 18.3 28.88 18.3h1.78 1.77c16.48 0 27.23-6.76 28.94-18.29a2.56 2.56 0 0 0 .05-.27zm-27.11-5.85c15.67.37 26.14 3.18 26.15 5.63l-.06.32c-.22.66-1.14 1.33-2.67 2-2.4-1.57-6.16-2.53-11.76-3v-.54a1.6 1.6 0 0 0 -.49-1.15 1.56 1.56 0 0 0 -1.18-.44l-3.58.17a8.57 8.57 0 0 1 -6.41-2.99zm6.89 4 3.14-.15a.67.67 0 0 1 .46.17.63.63 0 0 1 .19.44v.92h-2.44a1.35 1.35 0 0 1 -1.35-1.4zm-13 5.23a12.23 12.23 0 0 0 3.74.59 13.1 13.1 0 0 0 3.28-.41 5 5 0 0 1 2.8 0c4.07 1.07 6.94 0 7.87-2.9a1.88 1.88 0 0 0 .08-.52v-.05c4.83.42 8.32 1.22 10.58 2.46-4.89 1.63-14.24 3.01-25.89 3.01s-20.8-1.36-25.78-3c3.73-1.71 9.51-2.77 17.6-3.24a12.15 12.15 0 0 0 5.69 4.04zm-9.17-8.82a21.35 21.35 0 0 1 2.35 3.18c.13.21.27.41.4.6-8.61.55-14.41 1.74-18.12 3.73-1.51-.62-2.43-1.28-2.68-1.93 0-.13 0-.25-.07-.38.01-1.82 6.24-4.2 18.12-5.2zm11.63 23c-16 .45-26.8-5.35-29.36-15.65 4.17 3 17.1 4.59 29.39 4.59s25.24-1.6 29.4-4.6c-2.59 10.3-13.43 16.11-29.43 15.66z"/><path d="m35.16 24.68c-1.35 1.56-1.77 3.86-1 4.95a1.35 1.35 0 0 0 1.59.52 1.61 1.61 0 0 0 1.46 1.34h.25a4.41 4.41 0 0 0 3.54-2.49c1 1.65 2.87 2.65 4.06 2.34a1.38 1.38 0 0 0 1.05-1.36 1.52 1.52 0 0 0 1.7-.79c.64-1.19.19-3.19-1.13-4.59 1.93-.44 3.51-1.93 3.58-3.19a1.38 1.38 0 0 0 -1-1.4 1.55 1.55 0 0 0 -.3-1.88c-.93-.93-3-1.13-4.59-.34.21-1.88-.65-3.75-1.83-4.27a1.45 1.45 0 0 0 -1.74.4 1.45 1.45 0 0 0 -1.74-.4c-1.21.54-2.08 2.49-1.81 4.42-2-.88-3.83-.64-4.62.24a1.64 1.64 0 0 0 -.19 1.95 1.6 1.6 0 0 0 -1 1.65c.18 1.22 1.56 2.51 3.72 2.9zm-1.81-3.81a.5.5 0 0 0 .27-.8c-.29-.35-.57-.85-.22-1.24.55-.61 2.44-.79 4.4.51a.49.49 0 0 0 .73-.6c-.8-1.89.16-4 1-4.33.12-.05.5-.22.9.62a.52.52 0 0 0 .89 0c.39-.84.77-.67.89-.62.81.37 1.77 2.44 1 4.33a.5.5 0 0 0 .8.55c1.35-1.31 3.61-1.21 4.36-.46.11.11.47.47-.21 1.17a.49.49 0 0 0 .32.83c.59 0 .87.22.86.52-.05.82-1.66 2.39-3.69 2.39a.49.49 0 0 0 -.47.86h.07c1.74 1 2.19 3.21 1.76 4-.07.13-.29.55-1.18.09a.49.49 0 0 0 -.52.06.5.5 0 0 0 -.18.5c.14.59.06.93-.25 1-.81.21-2.86-.91-3.42-2.93a.5.5 0 0 0 -.51-.35.49.49 0 0 0 -.46.42 3.49 3.49 0 0 1 -3.15 3c-.18 0-.72-.08-.63-1.08a.49.49 0 0 0 -.23-.47.48.48 0 0 0 -.26-.07.53.53 0 0 0 -.27.08c-.71.47-.9.2-1 .11-.49-.73-.06-3.16 1.64-4.38a.48.48 0 0 0 .19-.54.49.49 0 0 0 -.46-.35c-2.33 0-3.75-1.29-3.83-2.13-.06-.37.43-.56.86-.69z"/><path d="m40.93 24.54a2.06 2.06 0 1 0 -2-2.06 2.06 2.06 0 0 0 2 2.06zm0-3.13a1.07 1.07 0 1 1 -1.07 1.07 1.07 1.07 0 0 1 1.07-1.07z"/></svg>